<?xml version="1.0" encoding="UTF-8" standalone="no"?>
<!-- Created with Inkscape (http://www.inkscape.org/) -->

<svg
   width="210mm"
   height="297mm"
   viewBox="0 0 210 297"
   version="1.1"
   id="svg1"
   sodipodi:docname="drawing2.svg"
   inkscape:version="1.3 (0e150ed6c4, 2023-07-21)"
   xmlns:inkscape="http://www.inkscape.org/namespaces/inkscape"
   xmlns:sodipodi="http://sodipodi.sourceforge.net/DTD/sodipodi-0.dtd"
   xmlns="http://www.w3.org/2000/svg"
   xmlns:svg="http://www.w3.org/2000/svg">
  <sodipodi:namedview
     id="namedview1"
     pagecolor="#ffffff"
     bordercolor="#999999"
     borderopacity="1"
     inkscape:showpageshadow="2"
     inkscape:pageopacity="0"
     inkscape:pagecheckerboard="0"
     inkscape:deskcolor="#d1d1d1"
     inkscape:document-units="mm"
     showgrid="false"
     inkscape:zoom="0.93340155"
     inkscape:cx="357.29532"
     inkscape:cy="201.94953"
     inkscape:window-width="1920"
     inkscape:window-height="1009"
     inkscape:window-x="-8"
     inkscape:window-y="-8"
     inkscape:window-maximized="1"
     inkscape:current-layer="layer1">
    <inkscape:grid
       id="grid1"
       units="mm"
       originx="0"
       originy="0"
       spacingx="0.99999998"
       spacingy="1"
       empcolor="#0099e5"
       empopacity="0.30196078"
       color="#0099e5"
       opacity="0.14901961"
       empspacing="5"
       dotted="false"
       gridanglex="30"
       gridanglez="30"
       visible="false" />
  </sodipodi:namedview>
  <defs
     id="defs1">
    <rect
       x="226.05491"
       y="458.53792"
       width="14.998904"
       height="19.284305"
       id="rect8" />
    <rect
       x="224.98356"
       y="457.46657"
       width="23.569706"
       height="51.424813"
       id="rect7" />
  </defs>
  <g
     inkscape:label="Layer 1"
     inkscape:groupmode="layer"
     id="layer1">
    <path
       style="fill:none;stroke-width:0.264583"
       d="m 24.841328,75.985239 c -1.762218,1.215253 -2.862265,1.962582 -4.383764,3.653137 -1.518014,1.686682 -2.663893,3.501218 -3.653136,5.479703 -0.516341,1.032685 -1.348428,1.282155 -1.826568,2.557195 -1.060505,2.828013 -2.062846,8.165939 0.365313,10.594097 0.502076,0.502076 1.20588,0.751115 1.826569,1.095941 1.06231,0.590172 2.099654,1.562528 3.287822,1.826568 3.718668,0.82637 6.802462,0.61809 10.594097,0.36531 1.954498,-0.13029 3.908904,-0.0887 5.845016,-0.36531 0.381207,-0.0545 0.713841,-0.31755 1.095941,-0.36531 2.131436,-0.26643 4.42427,0 6.575648,0 2.335371,0 4.687416,-0.0206 6.94096,0.73062 2.063458,0.68782 2.639676,1.14544 4.383762,2.19189 0.608856,0.36531 1.177724,0.80756 1.826569,1.09594 0.458801,0.20391 1.043501,0.0868 1.461254,0.36531 0.365313,0.24354 0.420169,0.78549 0.730629,1.09594 0.430524,0.43053 1.112096,0.59715 1.461254,1.09594 0.531817,0.75974 0.730625,1.7048 1.095941,2.5572 1.07384,2.50563 1.461254,3.88708 1.461254,6.57564 0,6.03094 -5.042593,10.6808 -9.863468,13.51661 -1.224021,0.72001 -2.36219,1.60019 -3.653137,2.19188 -5.270534,2.41566 -11.241386,3.5972 -16.804428,5.11439 -2.453066,0.66902 -4.82873,1.62014 -7.306273,2.19188 -1.951937,0.45045 -3.893082,0.28018 -5.845019,0.73063 -0.530631,0.12246 -0.932937,0.59855 -1.461254,0.73063 -0.472542,0.11813 -0.988713,-0.11814 -1.461255,0 -0.528317,0.13208 -0.93763,0.58102 -1.461254,0.73063 -0.351258,0.10035 -0.737722,-0.0717 -1.095941,0 -3.304377,0.66087 0.992275,0.0345 -1.095941,0.73062 -0.322474,0.10749 -1.077478,0 -1.461255,0"
       id="path1" />
    <path
       style="fill:none;stroke-width:0.264583"
       d="M 62.833948,150.87454 34.339482,74.889298"
       id="path2" />
    <path
       style="fill:none;stroke-width:0.264583"
       d="m 43.837637,52.97048 c -8.915553,2.918031 -15.058898,6.572162 -22.284132,11.690035 -1.758611,1.245684 -7.441187,5.634336 -8.402214,8.036901 -0.552794,1.381985 -0.730627,3.631552 -0.730627,5.11439 0,6.069727 1.321363,6.811942 8.0369,9.498156 2.294347,0.917739 10.878863,1.064143 12.055351,1.095941 7.896005,0.213405 15.847272,0 23.745388,0 1.461254,0 2.928001,-0.126588 4.383762,0 2.693596,0.234225 5.347997,0.812898 8.036902,1.095941 0.215034,0.02262 9.504441,0.501012 12.420663,1.826567 0.554283,0.251947 0.916678,0.823653 1.461254,1.095941 0.688843,0.344421 1.560952,0.288978 2.191882,0.730628 1.945159,1.36161 2.191883,3.389617 2.191883,5.479706 0,0.608854 0.332597,1.316583 0,1.826564 -3.087537,4.73423 -6.365198,7.99035 -11.324722,10.5941 -2.803219,1.47169 -5.853713,2.41476 -8.76753,3.65314 -1.957216,0.83181 -3.839615,1.8494 -5.845019,2.55719 -6.081162,2.14629 -12.61769,3.53328 -18.996308,4.38377 -8.588425,1.14512 -17.280654,1.82656 -25.937269,1.82656"
       id="path3" />
    <path
       style="fill:none;stroke-width:0.264583"
       d="m 96.077488,90.963098 c 0.243544,1.339485 0.247788,2.745504 0.730629,4.018452 1.183198,3.119339 4.918143,9.41645 6.575643,12.42066 0.86854,1.57423 1.81939,3.10951 2.5572,4.74908 0.36379,0.80842 0.29079,1.78749 0.73062,2.5572 0.55701,0.97475 1.51828,1.65905 2.19189,2.55719 2.25538,3.00718 -0.19511,1.96791 5.11439,4.74908 1.02534,0.53708 5.78342,1.56554 6.21033,1.09594 4.15868,-4.57455 3.74716,-11.88271 2.55719,-17.53506 -0.2619,-1.24405 -0.82587,-2.41082 -1.09593,-3.65313 -0.34024,-1.5651 -0.40068,-3.181784 -0.73063,-4.74908 -0.37593,-1.785663 -1.24651,-3.904083 -2.19188,-5.479704 -0.37724,-0.628724 -0.58449,-0.584488 -0.73063,-0.730628 -0.17221,-0.172209 -0.17221,-0.902838 0,-0.730626 2.74593,2.745933 4.99342,5.955456 7.67159,8.767527 0.6559,0.6887 1.51937,1.154061 2.19188,1.826571 1.64504,1.64504 3.13421,3.43972 4.74908,5.11439 1.67352,1.7355 3.56508,3.26714 5.11439,5.11439 1.62831,1.94145 2.89339,4.16108 4.38376,6.21033 1.99074,2.73727 1.04094,1.02261 3.28782,4.01845 0.34922,0.46562 1.0038,1.40309 1.09594,1.09594 1.36526,-4.55084 0.45906,-7.43889 -0.36531,-12.05535 -0.71627,-4.01109 -0.83698,-8.09698 -1.82657,-12.055349 -0.18679,-0.747154 -0.57959,-1.436688 -0.73063,-2.191883 0,-2.503252 0.15403,-0.479821 -0.36531,-2.557195 -0.0591,-0.23627 -0.22888,-0.813855 0,-0.730625 5.38693,1.958882 8.25907,4.848553 10.95941,9.863472 0.31089,0.57737 0.43736,1.24004 0.73063,1.82656 0.0545,0.10892 0,0.48709 0,0.36532 0,-4.74908 0,-9.498157 0,-14.247235 0,-0.730628 0.0607,-1.463778 0,-2.191882 -0.0615,-0.738148 -0.59955,-1.489186 -0.36532,-2.191883 0.11553,-0.346567 0.81068,-0.228208 1.09595,0 1.46527,1.172218 9.26336,8.819788 10.59409,10.594097 1.32698,1.769314 -0.38673,-0.02141 0.73063,1.095941"
       id="path4" />
    <path
       style="fill:none;stroke-width:0.264583"
       d="M 69.409592,164.75645 180.46494,181.56088"
       id="path5" />
    <text
       xml:space="preserve"
       style="font-size:3.175px;fill:none;stroke-width:0.264583"
       x="38.348721"
       y="75.646797"
       id="text5"><tspan
         sodipodi:role="line"
         id="tspan5"
         style="stroke-width:0.264583"
         x="38.348721"
         y="75.646797">Sumanta</tspan></text>
    <text
       xml:space="preserve"
       transform="scale(0.26458333)"
       id="text7"
       style="fill:#000000;white-space:pre;shape-inside:url(#rect7)" />
    <text
       xml:space="preserve"
       transform="scale(0.26458333)"
       id="text8"
       style="fill:#000000;font-size:18.66666667px;white-space:pre;shape-inside:url(#rect8)" />
    <path
       style="fill:#0000e8;fill-opacity:1;stroke-width:0.264583"
       id="path8"
       d="m 35.504755,30.772274 c -2.136225,-0.380381 -4.296312,-0.516816 -6.462567,-0.477988 -1.36175,0.107606 -2.746591,0.161271 -4.075524,0.509516 -0.365683,0.09583 -1.117501,0.363839 -1.488047,0.492408 -1.506962,0.673605 -2.826229,1.659999 -3.954432,2.855595 -1.201596,1.498452 -1.571125,3.36455 -1.820939,5.218687 -0.01598,0.666152 -0.09668,1.145275 0.178389,1.787641 0.971919,2.269739 5.140135,4.081063 6.696162,4.978829 2.463508,1.1645 5.164383,1.414301 7.841815,1.623943 2.396832,0.154316 4.798555,0.157052 7.199077,0.154226 1.195642,-0.0046 2.384968,0.100867 3.570007,0.248309 0.626362,0.07793 1.454727,0.176601 2.069187,0.342289 0.347525,0.09371 0.681702,0.231309 1.022554,0.346964 0.339852,0.147243 0.683072,0.286951 1.019561,0.441735 0.347184,0.159702 0.691785,0.325421 1.030963,0.501493 0.353081,0.183293 1.391539,0.771864 1.045136,0.576242 -0.739471,-0.417592 -1.457725,-0.876853 -2.224366,-1.242171 -0.362971,-0.172964 0.677572,0.433419 1.007978,0.66254 0.355857,0.246769 0.700148,0.509813 1.050224,0.764717 1.430811,1.142876 2.939227,2.266995 4.017732,3.772607 0.193598,0.270266 0.353653,0.563054 0.530479,0.844582 0.491816,1.028853 1.061699,2.1655 0.937295,3.347196 -0.09387,0.891672 -0.268066,1.002768 -0.711505,1.777357 -1.536808,1.850011 -3.422263,2.909974 -5.719217,3.560738 -0.525759,0.148958 -1.063734,0.250831 -1.595599,0.376243 -4.120065,0.713005 -8.323593,0.737674 -12.49326,0.72834 -3.767002,-0.05029 -7.539283,-0.146765 -11.292371,-0.491368 -0.814741,-0.07751 -1.622842,-0.169053 -2.424126,-0.333786 0,0 3.12021,2.350485 3.12021,2.350485 v 0 c 0.784653,0.112485 1.572447,0.186732 2.363302,0.243422 3.715045,0.249356 7.43959,0.32327 11.162039,0.361026 4.219599,0.02246 8.475522,0.01132 12.64281,-0.730173 0.542552,-0.132059 1.091568,-0.23994 1.627656,-0.396177 2.419387,-0.705093 4.285657,-1.832226 5.929553,-3.750397 0.501396,-0.853596 0.682075,-0.967073 0.828911,-1.943666 0.18737,-1.246193 -0.361098,-2.439815 -0.86241,-3.54266 -0.171159,-0.296698 -0.323019,-0.605403 -0.513479,-0.890098 -1.047406,-1.56564 -2.571999,-2.713193 -4.017417,-3.881837 -2.913407,-2.199902 -6.100993,-4.084156 -9.488041,-5.452165 -0.352877,-0.105111 -0.700458,-0.230005 -1.058632,-0.315333 -1.846236,-0.439841 -3.786513,-0.437388 -5.669211,-0.5241 -2.382578,2.65e-4 -4.76776,0.0028 -7.146335,-0.153797 -2.667497,-0.221149 -5.351796,-0.536504 -7.770794,-1.774063 0.743109,0.44314 1.45918,0.935135 2.229328,1.329415 0.351979,0.180197 -0.657625,-0.440569 -0.969064,-0.684221 -1.222313,-0.956265 -1.838779,-1.612188 -1.749467,-3.218873 0.217538,-1.777619 0.536789,-3.577886 1.718994,-4.995862 1.095243,-1.148292 2.379244,-2.100657 3.860033,-2.696033 1.788946,-0.623255 3.525882,-0.898636 5.425347,-0.94728 2.191801,-0.0131 4.383786,0.149482 6.528229,0.627608 z" />
    <path
       style="fill:#0000e8;fill-opacity:1;stroke-width:0.264583"
       id="path9"
       d="m 56.330881,47.81946 c 1.306806,1.738707 2.705687,3.40274 4.086979,5.081844 0.936863,1.127869 1.823133,2.28359 2.596327,3.529653 0.229735,0.36335 0.465916,0.759717 0.735851,1.09623 0.252603,0.314907 0.625727,0.715197 0.976239,0.926168 3.670432,2.209202 2.551456,1.787113 4.534529,2.455717 1.417675,0.382289 2.802634,-0.03808 4.114028,-0.582469 1.398026,-0.801646 1.988624,-1.737929 2.507731,-3.225406 0.398248,-1.559862 0.617993,-3.1726 0.643107,-4.782563 -0.0044,-0.832065 -0.09472,-1.652871 -0.280945,-2.462451 -0.145664,-0.517435 -0.360418,-1.015103 -0.401206,-1.555636 0.01037,-0.04798 0.0011,-0.105056 0.03112,-0.143931 0.09359,-0.121401 0.297032,-0.08383 0.449898,-0.09522 0.754591,-0.05619 1.272799,0.05602 2.009055,0.24324 0.321945,0.111905 0.650039,0.207481 0.965832,0.335716 0.342009,0.13888 0.676098,0.297456 1.005187,0.464662 0.33175,0.168555 1.30466,0.716412 0.975982,0.541938 -0.800391,-0.424879 -1.555271,-0.943454 -2.391225,-1.293207 -0.311301,-0.130244 0.538422,0.407493 0.795819,0.625711 0.237834,0.201628 0.459182,0.421933 0.688774,0.632902 0.940834,0.897059 1.608172,1.999035 2.134595,3.174828 1.013243,2.485924 -0.694434,1.080412 3.98209,2.729909 -0.03252,-2.379442 0.249404,-4.753379 0.530508,-7.112769 0.14955,-1.06806 0.312997,-2.133201 0.531749,-3.189431 0.144981,-0.700026 0.223173,-1.168095 0.578358,-1.783035 0.111225,-0.08752 0.203523,-0.206965 0.333677,-0.262564 0.426593,-0.182235 0.745794,-0.029 1.159094,0.146322 0.285581,0.121145 1.10648,0.561639 0.829636,0.421672 -2.656417,-1.343036 -2.845406,-1.682819 -1.116481,-0.137263 1.686205,1.675254 3.07155,3.608025 4.281617,5.645295 1.199967,0.719289 2.304756,1.628807 3.5999,2.15786 0.227076,0.09276 0.413424,-0.685313 0.490714,-1.240716 0.145886,-1.048329 0.214297,-2.119141 0.316733,-3.17259 0.154189,-1.806813 0.620395,-3.56386 1.221989,-5.268076 0.1315,-0.274881 0.261167,-0.608206 0.475244,-0.839041 0.500964,-0.540182 1.453164,-0.505836 2.116054,-0.536454 0.26925,0.02787 0.54029,0.04189 0.80774,0.08363 0.56417,0.08805 1.00671,0.205444 1.53318,0.4259 0.23985,0.100438 0.92351,0.477232 0.69995,0.344421 -3.52378,-2.093362 -3.3138,-1.977593 -2.00261,-1.038913 1.29875,1.118341 2.33229,2.510211 3.35302,3.878001 0.69692,1.01428 1.5067,1.943822 2.29259,2.888917 0.42482,0.510571 0.75037,1.091009 1.13591,1.631558 0.41531,0.530971 0.65168,1.162801 0.93398,1.767808 0.18364,0.411189 0.44332,0.777886 0.71152,1.136692 0,0 3.62735,1.565014 3.62735,1.565014 v 0 c -0.25874,-0.350028 -0.54577,-0.674976 -0.75021,-1.063186 -0.27801,-0.619138 -0.51354,-1.268328 -0.90077,-1.826363 -0.17277,-0.264301 -0.37247,-0.504632 -0.54654,-0.767774 -0.18292,-0.276508 -0.18664,-0.30322 -0.34815,-0.609695 -0.0712,-0.108453 -0.16179,-0.202803 -0.24269,-0.304205 -0.83153,-0.920281 -1.62992,-1.884476 -2.35925,-2.886384 -1.03046,-1.379921 -2.06193,-2.781033 -3.30703,-3.976455 -1.76185,-1.415227 -0.79263,-0.690268 -4.63417,-2.806607 -0.39492,-0.217564 -1.0627,-0.430197 -1.49871,-0.527037 -0.701002,-0.155699 -0.942058,-0.137917 -1.66131,-0.175815 -1.490572,0.132212 -2.268362,0.274981 -2.851785,1.752928 -0.561914,1.751393 -1.032023,3.543477 -1.194601,5.381193 -0.107598,1.035325 -0.208627,2.075207 -0.368406,3.104256 -0.02865,0.184515 -0.06567,0.367744 -0.106257,0.550005 -0.005,0.02254 -0.04951,0.04986 -0.03011,0.06239 0.999836,0.645827 2.024168,1.252919 3.036252,1.879378 -1.276871,-2.052394 -2.647542,-4.049477 -4.342185,-5.786776 -2.157217,-2.062345 -1.102138,-1.195181 -5.388946,-3.687374 -0.281342,-0.163562 -0.589085,-0.286041 -0.90356,-0.369779 -0.768054,-0.204515 -1.285645,-0.0726 -1.799987,0.506524 -0.08901,0.16696 -0.20003,0.323935 -0.267034,0.500877 -0.114374,0.302043 -0.261881,1.147493 -0.312668,1.423202 -0.197787,1.07373 -0.350391,2.15365 -0.501555,3.23483 -0.277921,2.353927 -0.531082,4.715206 -0.645737,7.083073 5.042723,3.286115 3.733282,3.595378 3.458139,2.087007 -0.08643,-0.473797 -0.171773,-0.946549 -0.382863,-1.385959 -0.549622,-1.216726 -1.184574,-2.392947 -2.143924,-3.345365 -1.919229,-1.852832 -2.730066,-2.119574 -5.637953,-3.828314 -0.950196,-0.558358 -1.976747,-0.986449 -3.03779,-1.280586 -0.810723,-0.16152 -2.613647,-0.58542 -2.951787,0.538697 -0.02016,0.569626 0.160478,1.113496 0.370975,1.637937 0.193929,0.793282 0.354801,1.580925 0.363837,2.404086 0.04533,1.571707 -0.161761,3.155733 -0.556157,4.676172 -0.509387,1.419696 -0.989412,2.203693 -2.359647,2.931176 -1.275879,0.509328 -2.596899,0.828386 -3.938966,0.349424 -1.508918,-0.631007 -1.078211,-0.48297 2.157553,1.384245 0.190878,0.110146 -0.37987,-0.226304 -0.551791,-0.364178 -0.348284,-0.27931 -0.60447,-0.600818 -0.859764,-0.962985 -0.126891,-0.180015 -0.238709,-0.370197 -0.358066,-0.555295 -0.772908,-1.275556 -1.643168,-2.46725 -2.616411,-3.599008 -1.38353,-1.646496 -2.796606,-3.271599 -4.030343,-5.036401 z" />
    <path
       style="fill:#0000e8;fill-opacity:1;stroke-width:0.264583"
       id="path10"
       d="m 117.22578,35.26741 c -0.43189,1.054153 -0.76116,2.143916 -1.049,3.245387 -0.40263,1.567088 -0.46323,3.186975 -0.52234,4.795155 -0.0782,1.109099 0.0132,2.21102 0.57575,3.18349 0.28138,0.369684 0.64673,0.687634 1.05275,0.917099 3.71664,2.100448 2.30755,1.80512 4.03882,2.119627 0.79517,0.09621 1.60668,0.152191 2.40424,0.0634 0.75855,-0.158382 1.38016,-0.585917 1.85401,-1.18477 0.62134,-1.003186 0.73256,-2.200037 0.82888,-3.349802 0.0294,-1.331688 -0.38295,-2.586032 -0.75987,-3.842991 -0.31881,-1.161354 -0.72203,-2.277914 -1.29986,-3.335065 -0.40577,-0.708813 -0.81394,-1.417579 -1.26789,-2.09691 -1.26578,-1.401464 -3.1097,-2.170626 -4.88068,-2.758683 -0.30677,-0.102058 -0.63232,-0.100881 -0.94707,-0.158933 -0.0358,-0.0066 -0.0831,-0.05583 -0.10563,-0.02732 -0.094,0.118592 -0.13122,0.272688 -0.19682,0.409033 0.0243,0.06515 0.0289,0.141573 0.0729,0.195445 0.179,0.219324 0.77375,0.540001 1.00641,0.674434 3.31,1.91258 2.6791,1.563777 4.4492,2.528144 1.01473,0.580964 2.14991,0.875887 3.2359,1.282295 1.06384,0.42106 2.18145,0.650033 3.28394,0.94284 1.0995,0.316225 2.12668,0.807556 3.1524,1.304004 0.85763,0.412652 1.77597,0.692486 2.6336,1.100635 0.11619,0.04304 0.23273,0.08518 0.34858,0.129127 0.24644,0.09349 0.95418,0.444966 0.72641,0.312328 -1.01354,-0.590236 -2.03751,-1.162386 -3.05776,-1.740948 -0.10004,-0.05673 0.19739,0.118128 0.2971,0.17544 1.22021,0.701307 2.44176,1.400267 3.66264,2.1004 0.17761,0.03417 0.64585,0.332033 0.83663,0.188865 0.45773,-0.343485 0.19297,-0.984372 0.0668,-1.390666 -1.05804,-2.1208 -2.12051,-4.239006 -3.10896,-6.393759 -0.55387,-1.239023 -1.01739,-2.519868 -1.22744,-3.863526 -0.0174,-0.523946 -0.0472,-0.639913 0.51236,-0.481004 0.757,0.214995 0.65713,0.193828 1.46507,0.470834 0.28092,0.122719 0.57063,0.22702 0.84276,0.36816 0.29352,0.152236 1.14508,0.660788 0.85073,0.510153 -0.83598,-0.427823 -1.6146,-0.970505 -2.47693,-1.342371 -0.29331,-0.126484 0.50879,0.387117 0.74927,0.597347 0.42471,0.371284 0.87949,0.862534 1.27051,1.27018 0.98067,1.084617 1.89173,2.231189 2.77469,3.396131 1.01171,1.319911 1.26641,1.692092 3.92409,1.796907 0.35385,0.01394 -0.26701,-0.656241 -0.38582,-0.989841 -0.20251,-0.568582 -0.7241,-2.225363 -0.89329,-2.756781 -0.61317,-2.133018 -1.23441,-4.287366 -1.40369,-6.50893 0.008,-1.251869 0.39541,-1.033528 1.43768,-0.787816 1.03611,0.382964 2.11834,0.648632 3.11379,1.137566 0.26261,0.12899 0.51238,0.282644 0.76857,0.423966 -0.84986,-0.469088 -1.69971,-0.938176 -2.54956,-1.407263 1.37709,1.02521 2.39544,2.400953 3.33602,3.815453 0.43545,0.836316 0.99885,1.545402 1.70588,2.162516 1.42916,0.870167 3.8518,3.878733 5.00099,2.610467 0.13924,-0.153673 0.21165,-0.35668 0.31747,-0.535022 0.66852,-1.692072 0.9592,-3.493858 1.15847,-5.292344 0.10765,-1.577073 0.22005,-3.160855 0.0538,-4.738096 -0.0745,-0.706941 -0.19381,-1.310009 -0.31781,-2.004742 -0.26995,-1.639998 -0.83958,-3.171305 -1.60353,-4.637721 -0.97237,-1.703255 -1.89757,-3.430844 -2.76207,-5.191316 -0.62251,-1.295047 -1.23257,-2.577136 -2.10196,-3.7253262 -0.90336,-1.0544862 -1.76973,-2.1391303 -2.65877,-3.205549 -1.37552,-1.5754453 -1.00726,-1.6702256 -4.37084,-2.2182936 -0.22059,-0.035945 0.10871,0.433596 0.16306,0.650394 0.842,2.1328014 1.95783,4.1474476 2.97273,6.2016888 0.95458,1.880036 1.80373,3.811602 2.74083,5.699704 0.80791,1.590349 1.75477,3.102854 2.68883,4.620445 1.05117,1.599556 2.25548,3.086819 3.50274,4.535597 0.65816,0.811558 1.47244,1.480935 2.27968,2.138838 1.52101,1.026141 3.0236,2.285198 4.8137,2.738911 0.27436,0.06954 0.72385,0.112215 0.99802,0.14437 1.0566,0.151397 2.07334,0.09847 3.09882,-0.182288 1.16457,-0.409331 2.33038,-0.812853 3.49565,-1.220912 0.92405,-0.449847 1.88797,-0.812252 2.823,-1.234482 0.10169,-0.05858 0.20337,-0.11716 0.30506,-0.175741 0,0 -3.30721,-2.155744 -3.30721,-2.155744 v 0 c -0.0942,0.05008 -0.18831,0.10017 -0.28247,0.150255 -0.92521,0.410846 -1.84179,0.84165 -2.77704,1.228413 -1.15185,0.419758 -2.31172,0.817025 -3.48168,1.182907 -0.99842,0.220255 -1.99855,0.217283 -3.00983,0.05768 -0.42786,-0.07777 -0.55855,-0.08144 -0.95862,-0.228377 -0.12211,-0.04485 -0.46749,-0.226817 -0.35613,-0.159589 5.42264,3.273488 3.46098,2.034461 2.28624,1.313355 -0.39209,-0.293005 -0.73358,-0.620885 -1.10775,-0.933633 -0.43526,-0.363813 -0.9163,-0.669369 -1.23768,-1.155012 -1.28504,-1.409459 -2.49013,-2.893569 -3.54919,-4.481605 -0.92455,-1.515293 -1.89609,-3.004786 -2.69863,-4.591207 -0.98291,-1.887401 -1.83574,-3.841844 -2.81952,-5.729634 -0.98671,-2.0172719 -2.03427,-4.0104633 -2.89957,-6.0833784 -0.5343,-1.9177019 -0.0232,-0.6105613 -3.7946,-2.7026563 -0.0669,-0.037117 0.0974,0.1181693 0.1418,0.1805133 0.22258,0.31282 0.43964,0.6240592 0.73465,0.8779428 0.89534,1.0693556 1.78386,2.1440843 2.69054,3.2043531 0.33635,0.4203147 0.51058,0.6126101 0.79339,1.0590982 0.52536,0.8294037 0.88887,1.7494463 1.36506,2.6056023 0.87389,1.754701 1.78573,3.489311 2.74967,5.196164 0.76353,1.439501 1.39286,2.923087 1.668,4.542495 0.14044,0.682233 0.27738,1.285934 0.36494,1.981245 0.19535,1.551251 0.0972,3.112584 -0.0375,4.664417 -0.19051,1.732399 -0.46082,3.484041 -1.1472,5.098505 -0.0674,0.09733 -0.10454,0.225091 -0.20223,0.291986 -0.0468,0.03202 -0.21362,-0.06972 -0.16512,-0.04042 5.66469,3.421949 3.30343,1.980753 2.09803,1.115999 -0.75849,-0.555995 -1.37143,-1.220271 -1.79628,-2.069719 -0.96074,-1.438089 -1.96631,-2.856621 -3.31062,-3.96893 -0.1918,-0.114456 -3.42397,-2.174648 -4.8489,-2.81917 -1.02449,-0.463399 -2.11814,-0.766291 -3.19113,-1.091043 -0.22269,-0.02904 -0.44349,-0.08622 -0.66806,-0.08712 -0.91659,-0.0037 -1.17631,0.688505 -1.14604,1.4824 0.21646,2.267351 0.89173,4.454844 1.49144,6.64339 1.34106,4.415602 -0.38288,-1.274318 0.8201,2.736434 0.0983,0.327824 0.026,0.777505 0.30061,0.981769 1.15816,0.86147 2.51306,1.423151 3.8031,2.070668 0.2681,0.134568 -1.04156,-0.960643 -0.58002,-0.688059 -0.88643,-1.186042 -1.82505,-2.33531 -2.79511,-3.453723 -0.1779,-0.188018 -1.09093,-1.158258 -1.26447,-1.319448 -1.4006,-1.300863 -3.25658,-2.170583 -4.83307,-3.110436 -0.28929,-0.172469 -0.58411,-0.337008 -0.88867,-0.480817 -0.2823,-0.133299 -0.57937,-0.232775 -0.86905,-0.349165 -0.94672,-0.295346 -2.509,-0.9525 -2.45736,0.646062 0.20859,1.401043 0.70845,2.727627 1.29043,4.014645 0.99212,2.115669 2.00816,4.219987 3.02961,6.321409 0.0651,0.150299 0.13773,0.297585 0.19543,0.450892 0.0305,0.08111 0.0301,0.173181 0.0687,0.25077 0.007,0.01505 0.0581,-0.01879 0.043,-0.02633 -0.23068,-0.115697 -0.52978,-0.120113 -0.73827,-0.295307 1.03209,0.598688 2.06287,1.199637 3.09626,1.796063 0.10111,0.05835 -0.19808,-0.123677 -0.29931,-0.181801 -1.23431,-0.708675 -2.46411,-1.425418 -3.70722,-2.118537 -0.33848,-0.188727 -0.73551,-0.26285 -1.07924,-0.441222 -0.8759,-0.349617 -1.75361,-0.696441 -2.60779,-1.097417 -1.03125,-0.488479 -2.07839,-0.944875 -3.18557,-1.236216 -1.10349,-0.288766 -2.21044,-0.558802 -3.27424,-0.978662 -1.08647,-0.375713 -2.18327,-0.737367 -3.1838,-1.316823 -1.28719,-0.696799 -2.03635,-1.111017 2.23887,1.340218 0.25808,0.147976 -0.50718,-0.311142 -0.75848,-0.470374 -0.28243,-0.178967 -0.10019,-0.168351 -0.35903,-0.131373 -0.0787,0.09883 -0.18541,0.180758 -0.23603,0.296497 -5.3e-4,0.0011 0.1132,0.005 0.28787,0.03543 0.2413,0.04202 0.47871,0.102619 0.70873,0.187325 0.33228,0.119235 0.96199,0.402087 0.7402,0.26873 -5.5675,-3.347488 -3.73169,-2.275023 -2.61217,-1.500693 0.53677,0.598723 0.87055,1.394428 1.32071,2.061009 0.61333,1.023252 1.03372,2.111433 1.35413,3.260187 0.35581,1.219589 0.79994,2.421287 0.81333,3.710125 -0.0783,1.066959 -0.1504,2.195828 -0.73681,3.123407 -0.44852,0.499951 -1.00207,0.850923 -1.68362,0.921776 -0.77905,0.03296 -1.57031,0.0034 -2.3324,-0.172542 -1.46348,-0.501971 -0.36866,-0.150273 2.78104,1.703842 0.0867,0.05106 -0.18008,-0.09052 -0.26566,-0.143476 -0.30205,-0.186906 -0.60836,-0.37942 -0.8673,-0.623969 -0.6805,-0.842256 -0.78934,-1.934321 -0.74082,-2.988948 0.0473,-1.579417 0.11475,-3.169475 0.49566,-4.710596 0.28777,-1.077058 0.62175,-2.143832 1.08597,-3.159295 z" />
    <path
       style="fill:#0000e8;fill-opacity:1;stroke-width:0.264583"
       id="path11"
       d="m 142.89346,15.374888 c 2.34759,-1.302698 4.93388,-2.12952 7.47486,-2.969622 2.672,-0.904746 5.44022,-1.391366 8.22187,-1.796762 1.92453,-0.283051 3.85701,-0.484922 5.79839,-0.602734 0.59985,-0.034329 1.20047,-0.048593 1.80107,-0.060526 0,0 -3.18023,-2.2951916 -3.18023,-2.2951916 v 0 c -0.59086,0.025889 -1.18162,0.054466 -1.77138,0.099937 -1.93207,0.1513509 -3.85984,0.359511 -5.7752,0.6575141 -2.775,0.4375934 -5.52708,0.998619 -8.19679,1.8930595 -2.58465,0.870535 -5.18697,1.72316 -7.65291,2.898545 z" />
    <path
       style="fill:#0000e8;fill-opacity:1;stroke-width:0.264583"
       id="path12"
       d="m 175.74508,7.3067983 c -1.93514,0.9507003 -4.00084,1.5878217 -6.00672,2.3658454 -0.57672,0.198718 -1.12905,0.4424663 -1.6576,0.7450293 -0.14016,0.08023 -0.49712,0.273244 -0.61338,0.409709 -0.0926,0.108736 -0.14692,0.245028 -0.22038,0.367542 -0.53877,1.389163 -0.13637,2.857752 0.2322,4.235266 0.57207,1.856942 1.4013,3.626526 2.48912,5.235399 0.65475,0.925073 1.48353,1.695589 2.36941,2.393187 1.76559,1.160403 3.53285,2.544362 5.60394,3.038781 1.10237,0.300269 2.17235,0.100929 3.25059,-0.180867 0.83899,-0.238462 1.45073,-0.820093 2.01377,-1.455419 0.75198,-1.169417 0.89535,-2.563446 1.00139,-3.916124 0.0448,-1.34786 -0.0157,-2.691133 -0.31883,-4.006508 -0.14067,-0.727985 -0.42344,-1.397393 -0.77507,-2.043894 -0.29171,-0.517743 -0.65935,-0.990675 -1.08723,-1.402089 -0.65158,-0.511998 -1.16664,-1.162811 -1.6816,-1.805047 -0.20972,-0.242026 -0.38493,-0.509249 -0.55334,-0.78054 -0.0206,-0.03321 -0.0346,-0.128114 -0.0615,-0.0998 -0.0697,0.07322 -0.0186,0.321236 -0.11173,0.281889 -1.18092,-0.499094 -2.27582,-1.1812391 -3.41373,-1.7718585 0.83061,0.6887271 1.69037,1.3468985 2.55574,1.9946265 2.06743,1.502118 4.29243,2.805019 6.59876,3.903509 1.00353,0.534809 2.01846,1.034465 3.062,1.487188 1.20145,0.468479 2.39813,0.96727 3.66196,1.236629 1.32504,0.316091 2.68126,0.480552 4.03843,0.576127 0.5506,0.0024 1.14904,0.12519 1.69052,-0.04375 0.0921,-0.02875 0.50883,-0.252648 0.60337,-0.30241 0.52796,-0.330703 0.98701,-0.758801 1.31129,-1.290955 0.23999,-0.460684 0.37213,-0.9607 0.49554,-1.461746 0,0 -3.46411,-1.869179 -3.46411,-1.869179 v 0 c -0.10804,0.462162 -0.23132,0.918277 -0.44853,1.343597 -0.29414,0.463658 -0.71355,0.840009 -1.19491,1.10433 -0.68157,0.313355 -1.40619,0.257523 -2.14128,0.196702 -1.34138,-0.106697 -2.67924,-0.2765 -3.98449,-0.614403 -1.24256,-0.333921 -2.44536,-0.801062 -3.62995,-1.301219 -1.03424,-0.468474 -2.04294,-0.984798 -3.05559,-1.497745 -1.53639,-0.747604 -0.63947,-0.328332 2.32533,1.420041 0.17072,0.100672 -0.34346,-0.197854 -0.51478,-0.297492 -0.60535,-0.352065 -1.17917,-0.743614 -1.74662,-1.154447 -0.83485,-0.629678 -1.73504,-1.217862 -2.45514,-1.977602 -1.20317,-0.6343813 -2.35326,-1.3817339 -3.60952,-1.9031436 -0.11706,-0.048589 -0.16929,0.1981518 -0.20642,0.3193429 -0.0216,0.070467 0.57163,0.8758496 0.62927,0.9630597 0.53613,0.627602 1.00446,1.319597 1.63111,1.865571 0.47822,0.332793 0.8161,0.79461 1.15525,1.262177 0.33194,0.637543 0.70989,1.245302 0.83971,1.968478 0.35155,1.290948 0.45509,2.572544 0.41222,3.91186 -0.0979,1.259132 -0.19821,2.586144 -0.91657,3.667409 -0.53526,0.568437 -1.10679,1.076677 -1.88712,1.265136 -1.04529,0.258108 -2.07692,0.351193 -3.12397,0.02016 -1.5911,-0.511297 -0.61719,-0.23922 2.44583,1.586854 0.10828,0.06455 -0.21977,-0.12359 -0.32853,-0.18735 -0.20885,-0.122449 -0.42209,-0.237685 -0.62668,-0.367136 -0.11451,-0.07246 -0.22264,-0.154541 -0.33395,-0.231812 -0.92554,-0.644345 -1.76437,-1.413799 -2.46509,-2.299207 -1.15012,-1.545473 -1.99026,-3.290985 -2.57601,-5.125391 -0.34797,-1.266663 -0.74782,-2.616077 -0.29267,-3.909832 0.4722,-0.758127 1.5417,-0.972018 2.28835,-1.352703 2.01271,-0.827844 4.07687,-1.523061 6.09031,-2.3495415 z" />
  </g>
</svg>
