<?xml version="1.0" encoding="UTF-8" standalone="no"?>
<!-- Created with Inkscape (http://www.inkscape.org/) -->

<svg
   width="210mm"
   height="297mm"
   viewBox="0 0 210 297"
   version="1.1"
   id="svg1"
   inkscape:version="1.3 (0e150ed6c4, 2023-07-21)"
   sodipodi:docname="drawing1.svg"
   xmlns:inkscape="http://www.inkscape.org/namespaces/inkscape"
   xmlns:sodipodi="http://sodipodi.sourceforge.net/DTD/sodipodi-0.dtd"
   xmlns="http://www.w3.org/2000/svg"
   xmlns:svg="http://www.w3.org/2000/svg">
  <sodipodi:namedview
     id="namedview1"
     pagecolor="#ffffff"
     bordercolor="#999999"
     borderopacity="1"
     inkscape:showpageshadow="2"
     inkscape:pageopacity="0"
     inkscape:pagecheckerboard="0"
     inkscape:deskcolor="#d1d1d1"
     inkscape:document-units="mm"
     showgrid="false"
     inkscape:zoom="0.93340155"
     inkscape:cx="357.29532"
     inkscape:cy="201.94953"
     inkscape:window-width="1920"
     inkscape:window-height="1009"
     inkscape:window-x="-8"
     inkscape:window-y="-8"
     inkscape:window-maximized="1"
     inkscape:current-layer="layer1">
    <inkscape:grid
       id="grid1"
       units="mm"
       originx="0"
       originy="0"
       spacingx="0.99999998"
       spacingy="1"
       empcolor="#0099e5"
       empopacity="0.30196078"
       color="#0099e5"
       opacity="0.14901961"
       empspacing="5"
       dotted="false"
       gridanglex="30"
       gridanglez="30"
       visible="false" />
  </sodipodi:namedview>
  <defs
     id="defs1">
    <rect
       x="226.05491"
       y="458.53792"
       width="14.998904"
       height="19.284305"
       id="rect8" />
    <rect
       x="224.98356"
       y="457.46657"
       width="23.569706"
       height="51.424813"
       id="rect7" />
  </defs>
  <g
     inkscape:label="Layer 1"
     inkscape:groupmode="layer"
     id="layer1">
    <path
       style="fill:none;stroke-width:0.264583"
       d="m 24.841328,75.985239 c -1.762218,1.215253 -2.862265,1.962582 -4.383764,3.653137 -1.518014,1.686682 -2.663893,3.501218 -3.653136,5.479703 -0.516341,1.032685 -1.348428,1.282155 -1.826568,2.557195 -1.060505,2.828013 -2.062846,8.165939 0.365313,10.594097 0.502076,0.502076 1.20588,0.751115 1.826569,1.095941 1.06231,0.590172 2.099654,1.562528 3.287822,1.826568 3.718668,0.82637 6.802462,0.61809 10.594097,0.36531 1.954498,-0.13029 3.908904,-0.0887 5.845016,-0.36531 0.381207,-0.0545 0.713841,-0.31755 1.095941,-0.36531 2.131436,-0.26643 4.42427,0 6.575648,0 2.335371,0 4.687416,-0.0206 6.94096,0.73062 2.063458,0.68782 2.639676,1.14544 4.383762,2.19189 0.608856,0.36531 1.177724,0.80756 1.826569,1.09594 0.458801,0.20391 1.043501,0.0868 1.461254,0.36531 0.365313,0.24354 0.420169,0.78549 0.730629,1.09594 0.430524,0.43053 1.112096,0.59715 1.461254,1.09594 0.531817,0.75974 0.730625,1.7048 1.095941,2.5572 1.07384,2.50563 1.461254,3.88708 1.461254,6.57564 0,6.03094 -5.042593,10.6808 -9.863468,13.51661 -1.224021,0.72001 -2.36219,1.60019 -3.653137,2.19188 -5.270534,2.41566 -11.241386,3.5972 -16.804428,5.11439 -2.453066,0.66902 -4.82873,1.62014 -7.306273,2.19188 -1.951937,0.45045 -3.893082,0.28018 -5.845019,0.73063 -0.530631,0.12246 -0.932937,0.59855 -1.461254,0.73063 -0.472542,0.11813 -0.988713,-0.11814 -1.461255,0 -0.528317,0.13208 -0.93763,0.58102 -1.461254,0.73063 -0.351258,0.10035 -0.737722,-0.0717 -1.095941,0 -3.304377,0.66087 0.992275,0.0345 -1.095941,0.73062 -0.322474,0.10749 -1.077478,0 -1.461255,0"
       id="path1" />
    <path
       style="fill:none;stroke-width:0.264583"
       d="M 62.833948,150.87454 34.339482,74.889298"
       id="path2" />
    <path
       style="fill:none;stroke-width:0.264583"
       d="m 43.837637,52.97048 c -8.915553,2.918031 -15.058898,6.572162 -22.284132,11.690035 -1.758611,1.245684 -7.441187,5.634336 -8.402214,8.036901 -0.552794,1.381985 -0.730627,3.631552 -0.730627,5.11439 0,6.069727 1.321363,6.811942 8.0369,9.498156 2.294347,0.917739 10.878863,1.064143 12.055351,1.095941 7.896005,0.213405 15.847272,0 23.745388,0 1.461254,0 2.928001,-0.126588 4.383762,0 2.693596,0.234225 5.347997,0.812898 8.036902,1.095941 0.215034,0.02262 9.504441,0.501012 12.420663,1.826567 0.554283,0.251947 0.916678,0.823653 1.461254,1.095941 0.688843,0.344421 1.560952,0.288978 2.191882,0.730628 1.945159,1.36161 2.191883,3.389617 2.191883,5.479706 0,0.608854 0.332597,1.316583 0,1.826564 -3.087537,4.73423 -6.365198,7.99035 -11.324722,10.5941 -2.803219,1.47169 -5.853713,2.41476 -8.76753,3.65314 -1.957216,0.83181 -3.839615,1.8494 -5.845019,2.55719 -6.081162,2.14629 -12.61769,3.53328 -18.996308,4.38377 -8.588425,1.14512 -17.280654,1.82656 -25.937269,1.82656"
       id="path3" />
    <path
       style="fill:none;stroke-width:0.264583"
       d="m 96.077488,90.963098 c 0.243544,1.339485 0.247788,2.745504 0.730629,4.018452 1.183198,3.119339 4.918143,9.41645 6.575643,12.42066 0.86854,1.57423 1.81939,3.10951 2.5572,4.74908 0.36379,0.80842 0.29079,1.78749 0.73062,2.5572 0.55701,0.97475 1.51828,1.65905 2.19189,2.55719 2.25538,3.00718 -0.19511,1.96791 5.11439,4.74908 1.02534,0.53708 5.78342,1.56554 6.21033,1.09594 4.15868,-4.57455 3.74716,-11.88271 2.55719,-17.53506 -0.2619,-1.24405 -0.82587,-2.41082 -1.09593,-3.65313 -0.34024,-1.5651 -0.40068,-3.181784 -0.73063,-4.74908 -0.37593,-1.785663 -1.24651,-3.904083 -2.19188,-5.479704 -0.37724,-0.628724 -0.58449,-0.584488 -0.73063,-0.730628 -0.17221,-0.172209 -0.17221,-0.902838 0,-0.730626 2.74593,2.745933 4.99342,5.955456 7.67159,8.767527 0.6559,0.6887 1.51937,1.154061 2.19188,1.826571 1.64504,1.64504 3.13421,3.43972 4.74908,5.11439 1.67352,1.7355 3.56508,3.26714 5.11439,5.11439 1.62831,1.94145 2.89339,4.16108 4.38376,6.21033 1.99074,2.73727 1.04094,1.02261 3.28782,4.01845 0.34922,0.46562 1.0038,1.40309 1.09594,1.09594 1.36526,-4.55084 0.45906,-7.43889 -0.36531,-12.05535 -0.71627,-4.01109 -0.83698,-8.09698 -1.82657,-12.055349 -0.18679,-0.747154 -0.57959,-1.436688 -0.73063,-2.191883 0,-2.503252 0.15403,-0.479821 -0.36531,-2.557195 -0.0591,-0.23627 -0.22888,-0.813855 0,-0.730625 5.38693,1.958882 8.25907,4.848553 10.95941,9.863472 0.31089,0.57737 0.43736,1.24004 0.73063,1.82656 0.0545,0.10892 0,0.48709 0,0.36532 0,-4.74908 0,-9.498157 0,-14.247235 0,-0.730628 0.0607,-1.463778 0,-2.191882 -0.0615,-0.738148 -0.59955,-1.489186 -0.36532,-2.191883 0.11553,-0.346567 0.81068,-0.228208 1.09595,0 1.46527,1.172218 9.26336,8.819788 10.59409,10.594097 1.32698,1.769314 -0.38673,-0.02141 0.73063,1.095941"
       id="path4" />
    <path
       style="fill:none;stroke-width:0.264583"
       d="M 69.409592,164.75645 180.46494,181.56088"
       id="path5" />
    <text
       xml:space="preserve"
       style="font-size:3.175px;fill:none;stroke-width:0.264583"
       x="38.348721"
       y="75.646797"
       id="text5"><tspan
         sodipodi:role="line"
         id="tspan5"
         style="stroke-width:0.264583"
         x="38.348721"
         y="75.646797">Sumanta</tspan></text>
    <text
       xml:space="preserve"
       style="font-size:27.2482px;fill:#0000e8;fill-opacity:1;stroke-width:1.45973"
       x="11.760874"
       y="30.908274"
       id="text6"
       transform="scale(0.95339039,1.0488883)"><tspan
         id="tspan6"
         style="font-size:27.2482px;fill:#0000e8;fill-opacity:1;stroke-width:1.45973"
         x="11.760874"
         y="30.908274"
         sodipodi:role="line">Sumanta</tspan></text>
    <text
       xml:space="preserve"
       transform="scale(0.26458333)"
       id="text7"
       style="fill:#000000;white-space:pre;shape-inside:url(#rect7)" />
    <text
       xml:space="preserve"
       transform="scale(0.26458333)"
       id="text8"
       style="fill:#000000;font-size:18.66666667px;white-space:pre;shape-inside:url(#rect8)" />
  </g>
</svg>
