<?xml version="1.0" encoding="utf-8"?>
<svg viewBox="0 0 500 500" xmlns="http://www.w3.org/2000/svg">
  <path style="stroke: rgb(0, 0, 0); fill: none;" d="M 61.862 11.288 C 58.473 9.028 53.474 9.585 49.376 9.585 C 33.782 9.585 29.229 12.209 17.594 20.936 C 14.687 23.116 9.585 29.89 11.918 34.557 C 17.545 45.811 39.266 45.221 48.808 51.583 C 52.04 53.737 56.322 53.489 58.456 56.691 C 61.594 61.398 69.046 65.59 65.267 73.149 C 63.74 76.203 58.73 75.595 56.186 77.122 C 43.442 84.769 29.233 86.342 17.026 92.445 C 14.516 93.701 9.276 103.991 12.486 107.201 C 29.445 124.16 64.937 119.715 74.915 144.659 C 77.688 151.593 67.221 153.815 63.564 156.01 C 53.557 162.014 31.724 160.099 26.107 171.333 C 23.645 176.256 16.459 178.383 16.459 183.251 C 16.459 183.813 16.09 187.546 16.459 187.792 C 21.982 191.474 26.518 199.018 32.35 203.683 C 41.881 211.308 55.536 214.66 66.402 219.006 C 69.752 220.346 80.654 226.258 78.32 230.924 C 77.325 232.915 72.938 235.175 71.51 236.032 C 58.818 243.647 43.283 246.148 31.215 254.194 C 27.35 256.77 21.276 257.612 19.296 261.571 C 15.978 268.208 24.571 272.577 27.809 276.895 C 31.229 281.454 36.648 281.761 40.295 285.408 C 44.185 289.298 52.252 294.64 58.456 296.191 C 64.832 297.785 74.987 299.741 77.753 305.272 C 80.431 310.63 66.813 314.188 63.564 315.487 C 51.886 320.159 24.97 320.601 20.431 334.216 C 18.199 340.912 24.478 345.5 27.242 350.107 C 35.621 364.073 51.059 365.309 64.132 370.539 C 67.763 371.991 76.753 373.081 78.32 376.214 C 80.676 380.926 67.032 384.475 63.564 385.862 C 51.478 390.697 39.479 395.865 28.944 402.888 C 24.702 405.716 11.227 404.911 15.323 413.104 C 21.579 425.616 40.176 427.292 52.781 427.292 C 56.562 427.292 67.478 425.53 70.375 428.427 C 73.244 431.297 74.391 434.19 76.05 437.508 C 79.13 443.667 68.803 447.702 65.267 448.291 C 52.076 450.49 37.673 451.814 26.107 455.669 C 22.006 457.036 16.303 463.304 18.729 468.155 C 25.309 481.315 49.234 470.106 61.862 473.263 C 72.27 475.865 81.965 481.667 90.806 484.613 C 92.58 485.205 91.121 491.55 90.238 491.991 C 84.454 494.884 78.121 497.199 72.645 499.937 C 72.625 499.947 65.267 500.505 65.267 500.505 C 65.267 500.505 71.51 502.454 71.51 502.775"/>
</svg>