<svg width="256" height="381" viewBox="0 0 256 381" fill="none" xmlns="http://www.w3.org/2000/svg" style="
          height: 20vw;
          width: 20vw;
          position: fixed;
          top: 50%;
          left: 50%;
          transform: translate(-50%, -50%);
          z-index: 5;
        ">
        <g clip-path="url(#clip0_12_2174)">
          <mask id="mask0_12_2174" style="mask-type: luminance" maskUnits="userSpaceOnUse" x="0" y="0" width="256" height="381">
            <path d="M256 0H0V380.915H256V0Z" fill="white"></path>
          </mask>
          <g mask="url(#mask0_12_2174)">
            <path d="M144.135 350.522C135.743 351.599 127.397 351.996 118.989 351.859C80.6699 351.584 42.1523 331.561 22.3361 298.153C14.1958 284.522 9.52233 268.89 8.52198 253.022C8.16307 245.943 7.94925 238.734 7.78125 231.655C7.24671 214.932 7.55216 191.519 7.31544 174.505C7.26962 157.942 6.35326 133.75 6.52126 117.5C6.82671 111.086 7.07871 104.473 8.43798 98.1497H7.67434C5.78817 104.389 4.406 110.78 3.59655 117.263C1.14529 133.643 1.61111 157.866 1.22929 174.513C1.21402 191.366 -0.137612 250.708 0.00747775 260.574C1.0002 296.221 17.1663 331.645 44.9854 354.509C73.5071 378.227 114.804 387.765 150.351 375.692C176.994 366.131 198.017 345.154 211.595 321.031L210.701 320.619C193.771 339.182 168.213 347.758 144.12 350.522" fill="white"></path>
          </g>
          <mask id="mask1_12_2174" style="mask-type: luminance" maskUnits="userSpaceOnUse" x="0" y="0" width="256" height="381">
            <path d="M256 0H0V380.915H256V0Z" fill="white"></path>
          </mask>
          <g mask="url(#mask1_12_2174)">
            <path d="M166.059 249.776C143.708 226.822 123.762 217.314 107.176 213.13L107.611 213.084C140.065 208.288 167.014 177.842 167.014 144.586C167.014 108.344 136.522 75.9432 100.28 75.9432V75.9203H18.4644C20.5568 71.8425 29.8502 61.0829 37.2803 55.2029C51.8657 43.6492 68.8794 36.3641 86.7255 32.355C120.44 24.6118 156.812 29.9649 185.349 49.972C207.7 65.4127 224.363 89.9253 228.608 117.08C230.785 130.207 230.38 147.03 230.846 160.401C230.953 174.543 231.121 190.244 231.098 204.287C231.021 223.744 232.167 243.224 231.602 262.651C231.35 268.905 230.892 275.19 229.777 281.337L230.724 281.78C232.541 275.694 233.61 269.371 234.389 263.094C236.436 243.606 236.817 223.851 237.153 204.287C237.23 185.41 238.917 124.747 238.177 115.996C235.58 73.7439 211.999 33.4165 173.833 13.3101C154.521 2.97049 132.154 -1.38985 110.306 0.389411C65.6951 4.19993 34.1341 36.9063 16.5324 75.7523L15.9062 77.1115H55.8747C92.3076 79.1657 140.088 89.7878 140.088 144.556C140.088 199.323 91.6815 210.373 55.3555 212.526H30.8353V213.733H55.6915C63.1598 214.031 96.08 218.017 136.659 262.598C167.945 296.999 210.976 314.387 256 297.106C210.694 309.576 198.536 283.063 166.059 249.776Z" fill="white"></path>
          </g>
        </g>
        <defs>
          <clipPath id="clip0_12_2174">
            <rect width="256" height="381" fill="white"></rect>
          </clipPath>
        </defs>
      </svg>