<?xml version="1.0" encoding="utf-8"?>
<svg viewBox="0 0 500 500" xmlns="http://www.w3.org/2000/svg">
  <path style="stroke: rgb(0, 0, 0); fill: none;" d="M 47.106 68.041 C 47.106 81.637 51.096 95.143 49.376 108.904 C 48.673 114.523 46.479 119.414 45.403 124.795 C 44.609 128.765 44.39 141.699 41.998 144.091 C 40.863 145.226 39.156 142.189 38.593 140.686 C 36.15 134.174 36.118 126.27 33.485 119.687 C 31.338 114.321 32.35 107.789 32.35 102.094 C 32.35 91.478 31.931 80.079 35.187 70.312 C 36.571 66.161 36.12 61.433 39.16 58.393 C 42.942 54.611 44.842 46.099 52.781 48.745 C 55.76 49.738 57.948 54.747 59.024 57.258 C 62.834 66.148 62.429 75.224 62.429 85.067 C 62.429 87.491 63.657 95.19 61.862 96.986 C 58.985 99.862 58.491 105.464 56.186 107.769 C 53.863 110.092 52.213 104.364 52.213 104.364 C 52.213 104.364 58.257 110.776 59.024 112.309 C 61.152 116.566 66.094 124.488 69.24 127.633 C 71.873 130.266 70.476 134.778 74.347 136.713 C 88.051 143.565 88.536 124.764 88.536 116.85 C 88.536 113.837 89.139 108.373 87.401 106.634 C 85.046 104.279 85.698 115.903 85.698 116.85 C 85.698 123.214 85.434 133.744 90.238 136.146 C 92.781 137.417 98.318 135.723 100.454 135.011 C 109.424 132.021 124.635 118.897 114.075 108.337 C 109.357 103.619 107.832 105.192 107.832 114.579 C 107.832 115.817 108.102 122.66 108.967 123.092 C 111.619 124.418 112.342 130.271 116.345 131.606 C 117.792 132.088 120.49 132.913 121.453 133.876 C 123.461 135.883 130.262 131.39 131.669 131.038 C 137.923 129.474 144.691 121.896 140.749 114.012 C 140.065 112.644 135.337 103.533 133.939 104.931 C 132.311 106.559 133.137 114.542 133.939 118.552 C 136.131 129.514 138.509 145.078 136.209 156.577 C 134.726 163.992 132.816 173.977 125.426 176.441 C 124.315 176.811 121.189 180.149 119.75 178.711 C 113.077 172.037 119.681 163.029 122.588 154.307 C 123.841 150.547 129.463 146.565 132.804 142.389 C 142.037 130.847 154.401 122.481 162.883 110.607 C 166.179 105.993 175.369 99.875 175.369 94.148 C 175.369 93.266 176.004 89.108 175.369 88.473 C 172.641 85.745 168.327 89.44 166.856 90.175 C 161.624 92.791 155.968 101.839 153.803 108.337 C 153.325 109.768 150.396 115.146 152.1 116.85 C 160.505 125.255 166.856 117.716 166.856 107.201 C 166.856 105.711 166.966 97.553 168.558 97.553 C 170.084 97.553 168.671 100.638 169.126 102.094 C 170.577 106.736 169.092 112.843 172.531 116.282 C 174.684 118.435 176.004 120.89 178.207 123.092 C 179.565 124.451 186.162 123.66 187.855 123.66 C 195.611 123.66 211.501 120.445 216.799 115.147 C 221.905 110.041 211.375 95.935 207.719 94.716 C 206.75 94.393 204.701 89.788 202.611 91.878 C 202.075 92.414 202.15 94.952 201.476 95.851 C 194.642 104.962 196.86 110.569 204.881 114.579 C 206.183 115.231 209.226 116.663 211.124 115.714 C 213.655 114.449 214.934 104.648 215.664 102.094 C 219.265 89.489 221.339 77.359 221.339 64.069 C 221.339 62.602 222.039 44.073 215.664 50.448 C 214.185 51.927 215.423 57.002 215.096 58.961 C 214.328 63.574 213.394 67.167 213.394 72.014 C 213.394 88.964 215.34 118.093 239.501 110.039 C 243.69 108.643 244.452 101.997 245.743 98.121 C 248.911 88.619 250.851 81.486 250.851 71.447 C 250.851 70.332 251.12 60.932 250.284 60.096 C 249.116 58.928 244.534 50.522 241.771 53.285 C 239.741 55.315 240.584 62.059 240.068 64.636 C 238.285 73.553 236.514 91.58 240.636 99.823 C 241.625 101.802 248.646 117.287 249.149 116.282 C 253.482 107.616 258.901 99.719 265.04 93.581 C 267.848 90.772 268.276 82.966 271.85 79.392 C 272.207 79.035 274.541 89.882 275.255 91.31 C 278.305 97.409 278.767 102.2 283.201 106.634 C 289.173 112.606 304.293 118.222 314.983 112.877 C 316.365 112.186 327.107 113.962 327.469 112.877 C 329.219 107.626 327.818 100.215 328.604 94.716 C 330.83 79.132 334.04 55.227 343.927 45.34 C 345.442 43.826 348.574 50.246 349.035 51.015 C 352.189 56.271 352.44 62.269 352.44 68.609 C 352.44 85.74 353.331 101.281 363.224 111.174 C 364.994 112.944 368.821 109.061 369.467 107.769 C 371.896 102.91 373.439 96.709 373.439 90.743 C 373.439 90.314 373.439 83.932 373.439 83.932 C 373.439 83.932 369.853 91.129 371.737 93.013 C 374.712 95.988 380.063 112.686 386.493 109.472 C 391.148 107.144 385.226 89.739 388.763 86.203 C 390.084 84.882 395.402 98.517 396.141 99.256 C 396.479 99.594 397.276 103.796 397.276 103.796 C 397.276 103.796 396.141 98.127 396.141 96.986 C 396.141 90.807 395.342 82.461 398.978 78.825 C 401.758 76.045 408.007 88.524 405.789 90.743 C 403.57 92.962 399.138 85.635 403.519 85.635"/>
  <path style="stroke: rgb(0, 0, 0); fill: none;" d="M 328.036 83.932 C 338.407 83.932 349.095 80.527 357.548 80.527"/>
  <path style="stroke: rgb(0, 0, 0); fill: none;" d="M 85.698 91.31 C 83.293 91.31 79.166 93.292 81.725 95.851 C 85.172 99.298 95.589 91.878 85.698 91.878 C 84.563 91.878 83.428 91.878 82.293 91.878"/>
  <path style="stroke: rgb(0, 0, 0); fill: none;" d="M 368.899 65.771 C 367.747 66.924 364.469 74.395 366.629 76.554 C 366.865 76.791 372.068 76.791 372.304 76.554 C 376.949 71.909 371.735 66.906 366.629 66.906"/>
</svg>