<svg version="1.1" id="Layer_1" xmlns="http://www.w3.org/2000/svg" x="0" y="0" viewBox="0 0 1544 440" style="enable-background:new 0 0 1544 440" xml:space="preserve">
  <style>
    .st0{fill:#230751}
  </style>
  <path class="st0" d="M299.36 204.94c-22.34 45.9-52.4 99.92-78.8 114.95-27.21 15.43-59.71 7.31-75.96-23.97-12.59-23.15-13.81-49.15-36.96-64.18-10.56-6.5-16.25-5.28-21.53 5.28-15.84 30.06-34.93 61.34-46.71 94.64-1.62 4.87-16.65 10.97-15.84 4.87 5.69-36.96 76.36-184.41 86.92-207.15l28.03-60.93c1.22-2.03 2.03-4.47 3.25-8.12l-5.28 3.66c-21.93 13.4-43.46 27.21-65.4 40.21-14.62 8.94-28.43 17.87-38.18 32.49-6.9 10.56-11.78 21.53-6.5 35.34-5.69 2.84-8.94.41-10.97-3.65-4.06-8.53-2.44-17.06 1.22-25.18 6.91-15.84 19.09-27.62 33.71-36.15 13.81-8.94 29.25-15.84 43.06-24.78 15.03-9.75 29.25-20.72 43.46-31.28 3.25-2.03 5.69-5.28 8.94-6.09 8.12-1.62 15.84.81 13 10.15-7.31 20.31-15.03 40.62-23.15 60.52-7.72 18.68-16.25 36.56-23.96 55.24 7.72-11.78 15.03-23.96 23.56-35.34 17.87-23.96 36.15-47.52 55.24-70.68 20.31-24.37 61.74-57.68 93.83-46.71 9.75 3.25 16.65 10.56 19.5 24.78 15.03 74.74-45.9 145.82-117.39 174.25-19.09 7.31-38.18 11.37-58.49 10.97-1.22 0-2.84 0-4.47.41 19.9 13.41 26 34.93 32.9 56.05 7.31 23.56 34.53 45.49 58.9 30.06 29.65-18.68 64.99-86.52 77.99-112.92l6.08 3.26zm-117.8 3.25c63.77-28.84 123.89-97.48 104.79-166.94-1.22-4.87-3.66-8.53-6.9-10.56-18.28-11.37-60.52 20.72-70.68 33.31-26.4 31.68-52.4 57.27-74.33 91.8-12.59 19.09-23.56 38.99-36.15 60.12 29.25 4.45 56.87 3.64 83.27-7.73z"/>
  <path class="st0" d="M372.46 204.94c-12.59 26-32.09 58.49-45.9 69.86-14.22 11.78-28.84 11.37-37.37-2.03-10.56-15.03-8.94-36.15-3.66-51.59 4.06-13.4 10.97-25.59 17.06-38.18 1.22-2.44 2.84-5.69 5.69-7.31 2.44-1.22 6.09-2.03 8.53-.81 1.62.41 2.84 5.28 2.03 7.31-4.87 12.59-10.97 24.78-14.62 37.37-4.87 14.62-15.84 80.83 17.47 49.96 20.31-18.68 44.27-67.02 44.68-67.83l6.09 3.25zm-49.96-56.87c-1.22.81-4.47.81-5.69 0-4.87-4.87 2.44-16.65 5.69-20.31 4.06-4.47 8.94-4.47 13 1.22 2.03 3.25-7.72 14.22-13 19.09z"/>
  <path class="st0" d="M413.49 226.06c15.03-21.93 27.62-45.49 41.02-68.24 6.5-8.12 14.62 2.84 6.09 16.65-21.53 44.68-36.96 94.64-52.4 142.98 49.15-17.47 92.61-102.36 98.7-115.76 1.22.81 4.87 1.63 6.5 2.44-32.9 62.96-64.18 106.83-108.45 123.07-9.34 25.59-20.72 54.43-38.59 75.55-18.28 20.71-36.56 40.62-62.55 24.78-12.19-7.72-17.06-20.31-14.22-34.12 4.47-22.75 19.9-36.96 38.99-48.34 17.06-10.15 41.84-17.47 60.93-22.34 10.15-24.37 17.87-56.87 26.4-85.3-6.5 7.31-12.19 15.43-19.09 22.34-6.5 6.5-13 13-20.72 17.47-10.56 6.5-19.9 1.62-22.75-10.56-3.25-15.03-.81-29.65 4.06-43.87 6.9-17.87 15.84-35.34 23.96-52.8 1.22-2.44 2.84-5.69 5.28-6.5 2.84-1.22 7.31-1.62 10.15-.81 4.06 1.62 3.66 5.69 1.62 9.34-5.69 10.56-10.97 21.12-17.06 31.68-8.94 14.62-32.09 84.48-3.25 63.36 14.66-10.56 25.22-26.4 35.38-41.02zm-76.77 122.67c-11.78 5.28-21.93 13.4-28.84 24.37-4.47 6.9-7.72 14.22-9.75 21.93-2.84 10.97 1.22 21.12 8.94 25.59 33.71 19.09 75.14-67.83 81.24-90.17-16.25 6.09-35.75 11.37-51.59 18.28z"/>
  <path class="st0" d="M625.51 204.94c-23.15 40.62-38.59 62.15-62.15 89.77-16.25 19.09-39.81 17.06-41.43-9.75 0-10.56.41-17.87 5.69-34.12l6.9-19.09c-8.94 9.75-18.28 20.72-28.43 27.62-7.72 4.87-22.75 9.34-22.75-4.88-.81-21.53 16.25-48.34 33.31-62.14 2.84-2.03 5.69-4.06 8.94-5.69 11.78-6.09 20.72-4.47 29.65 6.09 2.44-3.66 4.47-7.31 7.72-10.56 2.03-2.44 5.69-4.47 8.94-4.87 7.31-1.22 10.97 2.44 7.31 9.34L554.43 235c-9.75 18.28-13 28.84-15.84 41.02-2.84 19.5 2.03 32.9 18.28 15.03 32.49-35.74 42.24-53.21 62.55-89.36l6.09 3.25zm-95.86-6.91c-12.19 9.75-28.03 30.06-31.68 48.34-1.22 5.69 0 8.12 1.22 8.53 10.15 3.25 40.62-44.28 50.77-54.84-4.06-4.46-6.5-12.18-20.31-2.03z"/>
  <path class="st0" d="M779.45 205.75c-14.62 28.43-48.34 103.98-81.24 99.51-25.59-3.25-32.49-30.46-33.31-51.18v-9.34l-14.22 15.84c-20.72 23.15-45.9 21.93-46.3-13 1.22-20.72 8.12-38.99 21.93-54.43 15.44-16.25 38.18-15.84 49.96-4.87 16.65-48.34 38.99-91.8 73.11-130.38 29.65-34.12 67.43-43.05 60.11 13.81-8.12 59.71-84.49 124.7-123.07 156.38-4.06 8.94-7.31 36.56-5.28 47.52 2.44 15.03 11.78 20.72 19.09 22.34 28.03 5.69 70.68-92.2 73.52-96.27l5.7 4.07zm-114.54 28.43c2.84-6.91 5.69-22.34 6.5-28.84.81-7.31-.81-12.59-6.9-15.84-15.44-6.9-31.68 30.87-36.15 41.43-5.28 11.78-11.37 54.02 14.22 26.81l22.33-23.56zM798.13 45.71c-7.31-14.62-27.21 8.12-32.9 14.62-37.37 45.09-59.71 99.92-76.36 155.16 49.96-45.08 117.39-101.13 109.26-169.78z"/>
  <path class="st0" d="M923.64 205.75c-17.87 30.87-53.21 99.51-77.99 123.48-20.71 20.31-57.27 9.34-54.43-19.9 4.06-29.25 23.15-66.21 35.74-91.8l1.22-4.06c-22.75 14.62-40.21 39.4-56.86 57.27-2.03 2.03-5.28 4.47-8.12 4.47-4.87.81-6.9-2.03-6.09-7.31 6.5-40.21 18.68-77.99 36.15-114.14 18.28-38.99 49.96-110.08 85.7-127.14 17.47-6.9 30.87 1.62 31.68 20.72 1.63 56.46-73.11 128.76-117.39 155.16-3.65 6.91-10.97 32.9-13.4 40.62 6.09-6.09 10.15-10.97 14.62-15.03 8.12-7.72 16.65-15.03 25.18-21.93 4.87-4.06 10.56-5.28 16.65-1.22 6.09 4.06 5.28 10.56 3.25 16.25-4.87 11.37-10.97 22.75-16.25 34.53-8.94 20.72-29.24 56.46-13.81 74.74 10.56 10.56 25.59-.81 33.71-8.12 22.34-23.15 58.49-90.98 74.74-120.64l5.7 4.05zM898.46 58.31c.81-8.94 0-17.47-6.91-23.96-20.31 10.15-82.45 112.11-94.23 156.79 41.02-28.45 95.86-84.5 101.14-132.83zM1092.2 219.97c30.87-13.81 69.05-10.56 99.51-.41 42.65-65.8 77.58-121.45 139.32-155.97-65.4.41-145.82 42.24-157.19 95.45-7.72-2.84-13.4-10.56-7.31-24.78 33.71-76.77 181.97-84.89 223.4-75.55 1.22.81.81 5.28-.81 8.12-32.09 57.27-66.21 99.92-89.77 162.07-12.59 33.71-18.28 74.74-14.62 110.48.41 3.66 2.44 7.31 3.65 11.78-4.87 4.87-13.81 2.84-16.25-6.09-7.72-31.28-2.44-82.05 6.09-110.48-24.37 11.37-51.99 6.5-73.93-2.44-28.84 46.31-80.02 101.55-136.07 101.55-44.28.41-75.55-28.84-75.15-71.49.41-38.99 19.9-73.11 62.55-74.33 21.56-.41 39.02 8.93 36.58 32.09zm-13.81 23.56c-6.91 5.28-14.22 1.62-10.15-6.91 1.62-5.69 4.87-10.56 6.5-15.84 4.06-17.87-3.25-24.78-19.5-24.37-36.96 1.22-53.21 31.68-53.21 64.99 0 34.12 21.93 65.4 58.9 62.96 49.55-3.25 101.95-63.77 126.73-99.11-33.31-11.38-87.33-12.19-109.27 18.28zm157.6-62.56-28.03 44.27c19.9 8.94 57.68 15.03 74.33-4.06 11.37-26 22.34-38.59 35.74-63.77 16.25-31.28 35.34-61.33 53.21-92.61-67.41 13.41-101.53 67.03-135.25 116.17zM1430.15 204.94c-12.59 26-32.09 58.49-45.9 69.86-14.22 11.78-28.84 11.37-37.37-2.03-10.56-15.03-8.94-36.15-3.66-51.59 4.06-13.4 10.97-25.59 17.06-38.18 1.22-2.44 2.84-5.69 5.69-7.31 2.44-1.22 6.09-2.03 8.53-.81 1.62.41 2.84 5.28 2.03 7.31-4.87 12.59-10.97 24.78-14.62 37.37-4.87 14.62-15.84 80.83 17.47 49.96 20.31-18.68 44.27-67.02 44.68-67.83l6.09 3.25zm-49.96-56.87c-1.22.81-4.47.81-5.69 0-4.87-4.87 2.44-16.65 5.69-20.31 4.06-4.47 8.94-4.47 13 1.22 2.02 3.25-7.72 14.22-13 19.09z"/>
  <path class="st0" d="m1423.65 202.5 31.68-62.14c2.44-4.47 6.09-4.87 10.15-3.25 4.47 1.62 4.87 4.87 3.25 9.34l-10.15 30.06c-3.25 11.78-2.03 22.75 6.09 32.5 7.72 8.53 9.34 18.28 5.28 29.25-4.87 12.19-10.15 23.96-14.62 35.74-2.03 5.28-4.47 13.4-4.87 20.31-.81 14.62 7.31 16.65 15.84 12.59 19.9-9.34 28.43-27.22 36.96-43.46 11.78-21.53 21.53-46.31 29.65-61.74 0 0 .81.81 6.09 3.25-7.72 15.44-18.28 39.81-30.06 61.33-9.75 18.69-21.93 38.18-41.84 45.9-11.78 4.47-23.97 2.44-30.06-13.4-4.06-10.16-2.44-20.72 2.03-30.46 4.87-10.56 10.16-21.53 15.84-32.09 4.87-9.75 4.87-18.28-3.66-27.21-5.28-5.69-11.78-10.15-13-19.09l-8.53 15.84-6.07-3.27z"/>
</svg>
