<?xml version="1.0" encoding="utf-8"?>
<svg viewBox="0 0 500 500" xmlns="http://www.w3.org/2000/svg">
  <path style="stroke: rgb(0, 0, 0); fill: none;" d="M 53.916 24.404 C 42.821 20.706 34.5 17.825 24.972 24.972 C 23.412 26.141 24.179 29.13 23.269 30.647 C 22.18 32.461 20.338 36.135 21.566 38.593 C 31.173 57.805 61.732 54.969 79.455 61.862 C 85.662 64.275 94.3 68.043 97.049 74.915 C 101.98 87.244 90.335 91.088 82.293 95.914 C 78.253 98.338 73.344 98.897 68.672 100.454 C 56.189 104.615 35.273 110.188 24.404 99.319 C 23.326 98.24 27.449 99.587 28.944 99.887 C 30.808 100.259 33.318 99.887 35.187 99.887 C 43.028 99.887 51.25 98.48 59.024 97.616 C 69.478 96.455 79.779 93.248 90.238 91.941 C 94.769 91.375 102.44 93.765 106.697 91.941 C 111.391 89.929 118.848 80.525 121.453 76.617 C 122.024 75.76 122.025 68.1 120.318 69.807 C 118.773 71.351 121.409 74.464 122.02 75.482 C 123.621 78.15 127.255 87.883 132.236 84.563 C 136.689 81.594 137.968 78.15 139.614 73.212 C 139.869 72.446 140.344 66.767 140.749 66.969 C 147.685 70.437 150.568 77.355 155.505 82.293 C 155.9 82.688 158.652 84.254 159.478 83.428 C 163.224 79.681 156.4 70.047 157.775 68.672 C 160.519 65.928 167.851 78.674 170.829 77.185 C 174.991 75.104 175.461 66.923 178.774 65.267 C 180.13 64.589 185.761 68.849 186.72 69.807 C 187.684 70.772 188.99 74.576 188.99 73.212 C 188.99 68.241 187.981 61.735 191.26 58.456 C 192.691 57.025 194.46 61.605 194.665 61.862 C 196.074 63.623 203.539 75.586 207.151 73.78 C 211.674 71.518 213.394 63.503 213.394 59.024 C 213.394 57.476 210.702 51.208 209.989 53.348 C 208.702 57.209 211.022 61.352 211.691 64.699 C 211.707 64.779 213.394 68.672 213.394 68.672 C 213.394 68.672 212.931 60.114 212.826 59.591 C 212.759 59.254 211.816 53.916 212.259 53.916 C 213.793 53.916 218.77 62.46 219.069 61.862 C 220.417 59.167 218.175 55.378 220.204 53.348 C 221.607 51.945 224.661 55.535 225.312 56.186 C 226.803 57.677 231.503 68.982 233.258 68.104 C 235.033 67.217 234.047 64.379 234.393 62.997 C 236.002 56.561 238.933 50.445 238.933 43.7 C 238.933 42.685 237.043 31.022 236.095 32.917 C 235.255 34.598 236.095 39.116 236.095 40.863 C 236.095 43.743 237.139 45.039 237.798 47.673 C 239.137 53.031 237.078 66.893 242.906 69.807 C 245.499 71.103 245.913 65.325 246.311 64.132 C 247.116 61.717 246.927 47.057 246.311 47.673 C 244.105 49.879 247.325 57.768 248.581 59.024 C 249.345 59.787 248.966 54.758 249.149 54.484 C 249.66 53.717 251.223 48.613 253.121 50.511 C 255.278 52.667 269.977 65.663 263.337 59.024"/>
  <path style="stroke: rgb(0, 0, 0); fill: none;" d="M 213.394 43.7 C 216.202 43.7 218.941 44.861 221.907 44.268 C 230.246 42.6 236.988 35.39 244.608 33.485 C 247.826 32.68 258.746 28.377 258.229 28.377"/>
</svg>